<svg xmlns="http://www.w3.org/2000/svg" width="24" height="24" viewBox="0 0 24 24"><g><g><path fill="#303030" d="M10.125 23.914h-.001A11.987 11.987 0 0 1 2.91 19.87 12.113 12.113 0 0 1 0 11.987 12.03 12.03 0 0 1 3.515 3.45 11.885 11.885 0 0 1 12-.086c3.205 0 6.219 1.256 8.485 3.536A12.03 12.03 0 0 1 24 11.987c0 2.895-1.034 5.694-2.911 7.883a11.983 11.983 0 0 1-7.213 4.043v-8.436h2.795l.532-3.49h-3.328V9.722c0-.704.254-1.885 1.956-1.885h1.513V4.866c-.009-.002-1.386-.236-2.687-.236-2.838 0-4.532 1.756-4.532 4.697v2.66H7.078v3.49h3.047v8.436z"/><path fill="none" stroke="#000" stroke-miterlimit="20" d="M10.125 23.914v0h-.001A11.987 11.987 0 0 1 2.91 19.87 12.113 12.113 0 0 1 0 11.987 12.03 12.03 0 0 1 3.515 3.45 11.885 11.885 0 0 1 12-.086c3.205 0 6.219 1.256 8.485 3.536A12.03 12.03 0 0 1 24 11.987c0 2.895-1.034 5.694-2.911 7.883a11.983 11.983 0 0 1-7.213 4.043v-8.436 0h2.795v0l.532-3.49v0h-3.328v0-2.265c0-.704.254-1.885 1.956-1.885h1.513v0-2.971c-.009-.002-1.386-.236-2.687-.236-2.838 0-4.532 1.756-4.532 4.697v2.66H7.078v3.49h3.047v8.436z"/></g></g></svg>