<svg xmlns="http://www.w3.org/2000/svg" width="25" height="24" viewBox="0 0 25 24"><g><g><g><path fill="#303030" d="M17.227-.014c1.278.058 2.15.261 2.913.558.79.307 1.459.717 2.126 1.384a5.882 5.882 0 0 1 1.384 2.125c.296.764.5 1.636.558 2.913.058 1.28.072 1.689.072 4.948 0 3.259-.014 3.668-.072 4.947-.059 1.278-.262 2.15-.558 2.913a5.882 5.882 0 0 1-1.384 2.126 5.882 5.882 0 0 1-2.126 1.384c-.763.297-1.635.5-2.913.558-1.28.058-1.688.072-4.947.072-3.26 0-3.668-.014-4.948-.072-1.277-.059-2.15-.261-2.913-.558A5.882 5.882 0 0 1 2.294 21.9 5.883 5.883 0 0 1 .91 19.774c-.297-.763-.5-1.635-.558-2.913-.058-1.28-.072-1.688-.072-4.947 0-3.26.014-3.668.072-4.948C.41 5.69.613 4.816.91 4.053a5.882 5.882 0 0 1 1.384-2.125A5.882 5.882 0 0 1 4.419.544c.764-.297 1.636-.5 2.913-.558 1.28-.058 1.689-.072 4.948-.072 3.259 0 3.667.014 4.947.072zm-4.947 2.09c-3.204 0-3.584.012-4.85.07-1.17.053-1.805.249-2.227.413-.56.218-.96.478-1.38.898-.42.42-.68.82-.898 1.38-.164.423-.36 1.058-.413 2.228-.058 1.265-.07 1.645-.07 4.849s.012 3.584.07 4.849c.053 1.17.249 1.805.413 2.228.218.56.478.96.898 1.38.42.42.82.68 1.38.898.422.164 1.058.36 2.228.413 1.265.058 1.644.07 4.849.07 3.204 0 3.584-.012 4.849-.07 1.17-.054 1.805-.249 2.228-.413.56-.218.96-.478 1.38-.898.42-.42.68-.82.898-1.38.164-.423.36-1.058.413-2.228.057-1.265.07-1.645.07-4.849s-.013-3.584-.07-4.85c-.054-1.169-.25-1.804-.413-2.227a3.719 3.719 0 0 0-.898-1.38c-.42-.42-.82-.68-1.38-.898-.423-.164-1.058-.36-2.228-.413-1.266-.058-1.645-.07-4.85-.07z"/></g><g><path fill="#303030" d="M12.28 15.51a3.595 3.595 0 1 1 0-7.191 3.595 3.595 0 0 1 0 7.19zm0-9.134a5.538 5.538 0 1 0 0 11.077 5.538 5.538 0 0 0 0-11.077z"/></g><g><path fill="#303030" d="M16.8 5.677a1.717 1.717 0 1 1 3.434 0 1.717 1.717 0 0 1-3.434 0z"/></g></g></g></svg>