<svg xmlns="http://www.w3.org/2000/svg" width="26" height="26" viewBox="0 0 26 26"><g><g><path fill="#fff" d="M13-.086c3.532 0 3.973.013 5.359.078 1.384.065 2.327.282 3.156.605.858.33 1.58.777 2.304 1.498A6.38 6.38 0 0 1 25.318 4.4c.32.828.539 1.772.604 3.156.061 1.386.078 1.827.078 5.36 0 3.531-.013 3.972-.078 5.358-.065 1.384-.283 2.327-.605 3.156a6.348 6.348 0 0 1-1.498 2.304 6.39 6.39 0 0 1-2.304 1.499c-.828.32-1.772.54-3.156.604-1.386.061-1.827.078-5.359.078s-3.973-.013-5.359-.078c-1.384-.065-2.327-.283-3.156-.604a6.357 6.357 0 0 1-2.304-1.5A6.375 6.375 0 0 1 .682 21.43c-.322-.828-.539-1.772-.604-3.156C.017 16.887 0 16.446 0 12.914s.013-3.973.078-5.359C.143 6.17.36 5.228.682 4.4a6.344 6.344 0 0 1 1.5-2.304A6.366 6.366 0 0 1 4.484.597c.83-.323 1.77-.54 3.156-.605C9.027-.069 9.468-.086 13-.086zm0 2.6c-3.216 0-3.741.01-5.238.075-1.019.049-1.703.185-2.337.432-.564.218-.971.48-1.404.914-.407.393-.72.873-.915 1.404-.247.637-.384 1.32-.43 2.337-.068 1.436-.076 1.937-.076 5.238 0 3.216.01 3.741.075 5.238.048 1.018.185 1.703.43 2.336.222.565.482.972.913 1.404.438.437.845.698 1.404.914.642.248 1.326.386 2.34.433 1.435.067 1.937.075 5.238.075 3.216 0 3.741-.009 5.238-.075 1.016-.048 1.701-.185 2.336-.43.563-.22.972-.482 1.404-.913.438-.438.7-.845.915-1.404.247-.641.385-1.326.432-2.34.067-1.435.075-1.937.075-5.238 0-3.216-.01-3.741-.075-5.238-.049-1.016-.185-1.703-.432-2.337a3.784 3.784 0 0 0-.914-1.404 3.75 3.75 0 0 0-1.404-.915c-.637-.247-1.32-.384-2.337-.43-1.436-.068-1.937-.076-5.238-.076zm8.45 3.575a1.625 1.625 0 1 1-3.25 0 1.625 1.625 0 0 1 3.25 0zM13 6.414a6.5 6.5 0 1 1 0 13 6.5 6.5 0 0 1 0-13zm0 2.6a3.9 3.9 0 1 0 0 7.8 3.9 3.9 0 0 0 0-7.8z"/></g></g></svg>