<svg xmlns="http://www.w3.org/2000/svg" viewBox="0 0 493 406"><g><g><path fill="#fff" d="M479.422 68.631c-1.425 3.704-3.192 7.393-4.937 11.037-1.739 3.63-3.538 7.383-5.035 11.258-4.517 11.667-12.701 20.222-25.022 26.144-12.697 6.1-25.978 7.656-40.62 4.742-4.358-.866-5.506-2.044-5.843-5.999-1.337-15.77-7.174-28.022-17.347-36.417-3.59-2.965 1.864-5.704 6.337-6.27 6.41-.841 13.676-1.791 20.12-4.49 14.395-6.013 29.928-7.229 44.947-8.403 8.743-.686 17.786-1.396 26.486-3.023.46.16 1.624 1.07 1.899 1.49.286 4.222-.033 7.474-.985 9.931zm-269.526 73.41s2.367-.1 2.71-.109c1.48-.04 3.015.062 4.396.642 1.249.527 2.915 1.728 2.977 3.23.059 1.416-1.855 2.725-.163 3.905.42.291.912.455 1.382.656 1.507.648 2.885 1.85 3.452 3.428.274.758.254 1.671-.257 2.295-.53.65-1.425.8-2.22.805-3.08.021-6.461-1.047-8.597-3.351-2.33-2.517-3.028-6.12-3.54-9.413-.114-.741-.14-2.087-.14-2.087zm23.465 22.157c2.228.063 4.503.563 7.138 1.142.219.048.441.098.663.145l-.062.077c-1.322 1.562-2.277 2.693-2.973 4.121-2.423 4.997-7.683 8.058-14.421 8.398-8.008.4-15.772-3.041-18.985-8.261-4.694-7.615-9.149-15.4-13.46-22.93l-.265-.466a2511.425 2511.425 0 0 0-3.92-6.831c.526-.189.99-.393 1.293-.527l.248-.106c1.217-.488 2.432-.784 3.417-.83.621-.03 1.328.126 1.896.28l.639.183a92.783 92.783 0 0 0 10.854 2.512l.014 1.937c.16 18.799 13.882 20.76 27.924 21.156zm150.577-19.76c-1.246 4.813-2.63 8.476-4.355 11.514-.141.236-4.681.126-5.557 1.152-10.626-25.398-1.546-39.173-1.21-53.408.19-8.067-2.702-14.579-7.675-17.94-.463 15.655-8.742 30.4-8.68 46.454.02 5.448 5.784 29.023 7.202 34.236l1.674 18.968c.829 9.34 1.68 18.994 4.765 28.185 4.163 12.395 12.315 23.315 23.05 30.918-12.448 3.532-25.809 4.062-38.746 4.573l-.307.012c-5.677.228-11.546.461-17.287.952-4.954.422-11.928 1.58-17.707 4.65-2.787-2.13-5.705-4.08-8.835-5.461-12.508-5.518-39.287-13.452-51.64-18.367 1.126 5.53 5.336 10.298 11.687 12.874 10.683 4.333 28.1 12.258 39.204 21.609-.102.308-.228.597-.314.917-1.642 6.177.515 12.078 2.606 17.808.748 2.047 1.518 4.162 2.067 6.192.871 3.233 1.364 6.871 1.843 10.418 1.042 7.682 2.115 15.607 7.115 21.053-13.5 3.031-28.578.292-41.594-7.572-12.75-7.712-23.51-20.131-31.119-35.909l-3.074-6.369-1.21 6.963c-1.827 10.481 1.412 21.798 8.488 30.007-36.317-3.768-71.495-24.412-92.18-54.222a120.049 120.049 0 0 1-5.937-9.469 124.97 124.97 0 0 1-5.054-9.983A129.475 129.475 0 0 1 147 224.775a131.17 131.17 0 0 1-3.249-10.753c-.923-3.6-1.704-7.304-2.326-10.999a132.47 132.47 0 0 1-1.83-22.392c.012-3.736.188-7.507.523-11.211.337-3.734.843-7.47 1.501-11.1.835-4.626 1.853-8.818 3.111-12.814.321-1.026.612-2.12.334-3.253-.184-.737-.689-1.31-1.353-1.536-.671-.221-1.403-.08-2.005.405-.527.426-.832 1-1.041 1.453-.84 1.828-1.589 3.713-2.31 5.538l-.427 1.067a170.717 170.717 0 0 0-1.859 4.875l-.141.388a158.866 158.866 0 0 0-3.93 12.486 138.297 138.297 0 0 0-2.707 12.19 121.855 121.855 0 0 0-1.475 11.845c-.028.39-.055.78-.078 1.17-.408-19.073 2.183-36.969 4.867-51.733.386-2.139 1.107-6.115 2.856-7.821 8.97-8.75 17.18-16.028 25.098-22.245 1.843-1.447 6.054-2.077 8.205-1.242 2.807 1.1 5.342 4.954 6.617 10.065 1.251 5.029.905 10.138-.826 12.15l-.913 1.059.538 1.298c.36.864.71 1.677 1.045 2.455l.124.29c.769 1.775 1.493 3.45 2.058 5.117.184.54.275 1.226.37 1.956.166 1.263.352 2.694 1.127 4.006a862.992 862.992 0 0 1 4.36 7.474c4.482 7.745 9.117 15.753 14.474 23.12 5.346 7.352 14.438 11.582 24.949 11.606 9.8 0 18.7-3.832 23.23-10.002 2.017-2.745 4.973-4.902 8.101-7.182.862-.627 1.725-1.258 2.571-1.902 2.938 3.508 4.691 3.482 9.614 1.63 6.978 14.538 18.116 25.738 28.9 36.585 3.87 3.89 7.872 7.913 11.62 12.043 3.218 3.544 6.197 7.418 9.076 11.167l1.624 2.11c.721.928 2.919 3.773 4.582 2.534 1.357-1.012.301-3.443-.793-5.647l-.186-.378c-1.2-2.4-2.346-4.825-3.491-7.251-1.216-2.574-2.435-5.147-3.712-7.692a374.944 374.944 0 0 0-5.884-11.198 341.604 341.604 0 0 0-4.774-8.433c-1.379-2.359-3.881-3.66-6.372-4.955-1.044-.545-2.026-1.057-2.858-1.624-.979-.672-1.64-1.276-2.032-1.847l-.61-.884c-5.913-8.632-12.03-17.556-17.834-26.448-.242-.373-.257-1.477-.041-3.287.343-2.877.185-5.823-.4-8.778 2.284-.784 4.437-1.628 6.317-2.794 3.678-2.28 2.923-5.896 1.691-9.279-2.218-6.086-4.61-15.451-10.455-19.037-26.204-16.074-42.932-24.218-55.407-36.77-1.464 6.3-.537 11.953 5.853 18.456 4.58 4.662 11.576 6.582 17.168 9.706 6.106 3.411 11.171 8.61 15.388 14.13 2.865 3.75 3.065 6.935 3.39 11.407.17 2.344.676 4.709.936 7.053l.389 3.16c.407 3.393.963 8.04-1.353 10.646-1.984 2.23-6.726 3.171-9.055 1.807-1.224-.715-2.156-2.065-2.85-4.132-2.098-6.23-4.08-12.116-8.87-16.93-2.416-2.43-5.398-4.358-8.708-5.304-3.208-.92-6.706.075-9.63-1.68-1.7-1.02-3.208-2.244-5.089-2.924a15.69 15.69 0 0 0-6.06-.917c-1.367.065-12.549-5.658-13.462-6.12-5.25-2.652-7.074-9.51-4.433-14.634 1.62-3.144 5.467-4.995 8.593-6.246l4.012-1.763s-6.444-24.78-32.14-35.298c1.52-.835 3.035-1.654 4.54-2.465l.37-.2c3.911-2.104 6.529-5.08 9.058-7.958 2.914-3.316 5.61-6.256 9.583-8.173 9.267-4.406 17.92-8.812 27.984-11.297 9.562-2.362 19.296-3.934 27.918-8.977 1.886-1.102 3.7-2.32 5.603-3.394 18.21-10.277 44.376-8.686 61.432 3.134 16.375 11.351 28.812 28.596 40.548 44.42 6.74 9.09 13.924 17.753 20.889 26.649 6.02 7.69 7.994 18.24 8.726 27.769.651 8.465-.009 16.589-1.955 24.143zm15.72 113.595c2.841.344 5.06 1.358 5.512 4.373.5 3.338.044 7.945-1.343 11.026-2.879 6.405-8.006 13.045.288 17.755 3.194 1.814 1.953 8.813.547 11.253-1.196 2.077-3.191 3.702-5.497 4.358-3.14.891-6.7.643-9.934 1.203-3.647.632-7.338 1.065-11.001 1.6-7.318 1.07-14.634 2.217-21.85 3.857-16.75 3.807-19.89 2.28-23.903-15.072 3.712 2.713 7.946 3.05 12.269 1.794 1.917-.558 3.663-1.417 5.506-2.143 1.989-.784 4.182-1.005 6.046-2.11.641-.38 1.235-.868 1.629-1.501 1.405-2.254-.209-5.862-1.584-7.738-1.047-1.429-2.995-2.582-4.748-3.04-8.304-2.174-17.083-3.24-21.955-12.33-.338-.632-1.105-.407-1.34.269-.807 2.307-1.074 4.886.793 10.711-3.981-5.42-5.663-12.615.145-17.4 6.126-5.043 15.175-4.573 22.49-3.202 9.376 1.758 18.055 3.49 27.49.853 3.502-.978 6.618-2.82 10.121-3.763a27.205 27.205 0 0 1 10.32-.753zm-49.031 75.99c-1.273.09-2.545.19-3.92.301-8.779.702-17.118 1.368-25.522-2.173 10.731-1.328 20.733-4.713 30.45-8.002 11.084-3.75 21.576-7.307 32.808-7.927-7.507 11.053-18.295 16.722-33.816 17.8zm-72.625-.775c-3.664 2.393-7.403 4.739-11.276 6.8a94.6 94.6 0 0 1-15.937 6.688c-22.738-1.049-67.799-16.348-83.89-23.513-8.328-3.71-16.207-3.614-21.595-.037 16.125 7.29 48.983 25.373 65.724 32.307 2.929 1.213 5.976 2.077 9.051 2.782-1.5 1.3-2.936 2.684-4.22 4.236-4.325 5.232-7.521 11.337-9.988 17.637-.975 2.492-1.424 5.617-2.724 7.91-1.138 2.005-3.509 3.49-5.578 4.34-3.976 1.55-8.64 1.364-12.685 1.08-21.242-1.492-42.333-7.023-61.68-16.03-21.691-22.255-53.475-75.04-57.45-81.623l-.326-.539c-.714-1.189-1.413-2.348-2.076-3.478a244.502 244.502 0 0 0-2.925-4.83c-3.548-5.76-6.896-11.197-8.598-17.53-10.06-37.442-13.106-78.059-9.307-124.182.344-4.19 1.366-8.3 2.354-12.272.229-.927.454-1.832.664-2.713 26.44 6.625 35.838 8.98 39.209 9.819-.154 1.62-.29 3.253-.395 4.904-1.158 6.309.09 14.603 1.015 17.992 3.28 15.898 10.002 21.707 13.371 38.2 4.68-4.464 6.518-12.127 4.744-21.068-3.212-16.194-5.51-23.12-1.992-34.469 3.515-2.802 6.064-4.175 6.064-4.175 4.32-.55 10.175-1.29 12.307-1.542-.024.624-.064 1.163-.16 1.66-2.792 14.698-3.43 28.874-2.074 45.963 1.656 20.866 10.908 35.236 12.41 36.355l.388.257.516-.112c5.07 17.606 16.063 34.618 33.586 51.988 18.043 17.885 47.14 40.047 83.321 44.073 2.488.278 5.034.488 7.73.707 10.806.881 21.967 1.789 29.651 8.072-.679-.539-6.551 3.901-7.229 4.343zM15.468 91.868c-4.185-4.192-4.922-9.854-1.878-14.424 5.065-7.62 9.942-13.131 14.907-16.856C41.937 50.501 56.735 47.15 71.85 47.15c10.776 0 21.715 1.703 32.436 3.889 23.787 4.845 70.204 24.859 71.643 43.21.084 1.07-4.011 1.088-6.443 1.277-4.976.382-10.724 2.576-15.374 5.87-5.191 3.676-9.84 8.152-14.395 12.539-1.02.982-2.039 1.964-3.064 2.934-7.46 7.072-15.313 11.007-24.011 12.036-36.227 4.254-68.01-7.848-97.175-37.038zm91.214-59.482c13.617-6.431 27.698-13.08 42.122-17.746 15.07-4.878 46.372.157 61.863 6.123-19.34 6.855-36.615 17.684-52.8 33.092-.382.367-1.631.744-2.332.604h-.002a193.442 193.442 0 0 0-3.372-.604l-.358-.061c-4.278-.734-8.703-1.494-12.518-3.16l-2.588-1.135c-12.92-5.677-26.262-11.54-41.003-11.966 3.7-1.707 7.383-3.444 10.988-5.147zm385.433 21.777c-3.135-10.297-14.853-8.554-22.608-7.395-1.775.264-3.612.538-5.053.621l-4.898.269c-11.643.627-23.68 1.276-35.252 4.302-16.207 4.241-32.418 8.492-48.61 12.814-1.05.281-1.915.864-2.704 1.393-.226.152-.447.305-.675.435l-2.89 1.671c-5.638-6.64-10.04-13.513-13.53-19.36-10.637-17.803-22.92-30.418-37.55-38.576-25.526-14.232-50.54-13.638-74.364 1.771-6.531 4.227-12.616 6.28-21.08 2.603-39.854-17.29-74.839-16.94-106.951 1.077-.596.332-1.335.58-2.116.843-.843.281-1.665.562-2.45.95-3.789 1.872-7.565 3.763-11.403 5.685-7.369 3.689-14.988 7.505-22.552 11.081-3.445 1.63-7.057 3.183-10.133 2.97-19.216-.98-37.103 5.493-53.097 19.372C4.791 64.851.013 73.3 0 81.795c-.012 8.096 4.316 15.988 12.863 23.454l1.45 1.266c4.964 4.352 10.096 8.848 15.867 12.25 2.107 1.24 4.17 2.645 4.973 4.511 1.346 3.13.087 7.094-1.132 10.93-.374 1.178-.737 2.328-1.02 3.42-1.534 5.952-1.87 12.129-2.194 18.104l-.04.756c-.794 14.533-.212 29.215.451 43.009.959 19.94 3.08 39.875 6.309 59.254 1.96 11.779 6.267 23.155 12.805 33.816 5.114 8.342 34.966 63.513 64.91 90.209l.172.035c8.37 8.456 20.66 12.618 30.037 15.064a242.828 242.828 0 0 0 48.82 7.543c.896.048 1.803.084 2.712.084 3.286 0 5.682-.491 7.773-1.588 4.417-2.318 6.527-6.914 8.387-10.967 4.2-9.155 9.632-19.443 18.068-26.345 7.85-6.421 17.977-9.71 27.788-12.897 9.33-3.029 18.977-6.162 27.126-12.013a121.62 121.62 0 0 0 1.725-1.275c2.688-2.014 5.227-3.919 8.088-4.266 2.694-.305 5.596.8 8.406 1.882l.329.127c29.498 11.328 56.96 10.27 75.36-2.878 3.79-2.71 7.19-5.913 10.486-9.02 3.51-3.306 7.138-6.725 11.135-9.403.535-.357 1.082-.707 1.626-1.056l.192-.12c2.368-1.506 4.811-3.066 6.719-5.394 3.919-4.783 4.292-11.385 4.564-16.204.85-14.965 1.905-33.583-6.988-48.57-3.463-5.838-8.234-10.737-12.858-15.488-5.62-5.772-10.933-11.223-13.98-18.166-2.997-6.836-3.346-14.962-.958-22.297.917-2.816 2.1-5.553 3.26-8.242 1.946-4.514 3.957-9.182 4.836-14.47 2.943-17.735 12.492-25.216 32.957-25.813 15.553-.459 29.796-6.088 40.099-15.853 10.578-10.025 16.881-23.916 22.978-37.348l.3-.66c.686-1.506 1.363-2.997 2.04-4.467 4.032-8.727 8.322-19.857 5.674-28.546z"/></g></g></svg>